<?xml version="1.0" encoding="UTF-8"?>
<svg id="Layer_1" data-name="Layer 1" xmlns="http://www.w3.org/2000/svg" viewBox="0 0 15 13.79">
  <defs>
    <style>
      .cls-1 {
        fill: #fff;
        stroke-width: 0px;
      }
    </style>
  </defs>
  <path class="cls-1" d="M8.21.29c-.39-.39-1.02-.39-1.41,0L.15,6.94c-.2.2-.2.51,0,.71.2.2.51.2.71,0h0l.65-.65v5.29c0,.83.67,1.5,1.5,1.5h9c.83,0,1.5-.67,1.5-1.5v-5.29l.65.65c.2.2.51.2.71,0s.2-.51,0-.71l-2.35-2.35V1.29c0-.28-.22-.5-.5-.5h-1c-.28,0-.5.22-.5.5v1.29L8.21.29ZM12.5,6v6.29c0,.28-.22.5-.5.5H3c-.28,0-.5-.22-.5-.5v-6.29L7.5,1l5,5Z"/>
</svg>